<svg height="512pt" viewBox="0 0 512 512" width="512pt" xmlns="http://www.w3.org/2000/svg"><path d="m59.101562 387.664062h-21.417968c-5.664063 0-10.300782 4.28125-10.300782 9.511719s-4.636718 9.507813-10.300781 9.507813h-4.109375c-5.667968 0-10.300781 4.640625-10.300781 10.308594v41.53125c0 5.667968 4.632813 10.304687 10.300781 10.304687h4.109375c5.664063 0 10.300781 4.28125 10.300781 9.511719 0 5.230468 4.636719 9.507812 10.300782 9.507812h21.417968zm0 0" fill="#ffb98a"/><path d="m90.914062 473.113281v-9.828125c0-5.132812 4.171876-9.308594 9.300782-9.308594v-2c-5.128906 0-9.300782-4.171874-9.300782-9.304687v-9.828125c0-5.132812 4.171876-9.308594 9.300782-9.308594v-2c-5.128906 0-9.300782-4.175781-9.300782-9.304687v-9.832031c0-5.128907 4.171876-9.304688 9.300782-9.304688h12.144531l-54.253906-20.957031v16.527343h10.769531c5.128906 0 9.300781 4.175782 9.300781 9.308594v34.214844c0 5.128906-4.171875 9.304688-9.300781 9.304688h-9.59375c-.398438 0-.792969-.035157-1.175781-.082032v57.453125c0 2.835938 2.316406 5.15625 5.148437 5.15625h31.105469c2.832031 0 5.523437-2.289062 5.980469-5.085937l2.683594-16.515625h-2.808594c-5.128906.003906-9.300782-4.171875-9.300782-9.304688zm0 0" fill="#9ea7af"/><path d="m321.375 284.992188v82.003906c17.140625-5.667969 29.515625-21.875 29.515625-41s-12.375-35.335938-29.515625-41.003906zm0 0" fill="#9ea7af"/><path d="m418.308594 407.632812c-1.914063 0-3.828125-.726562-5.292969-2.183593-2.933594-2.921875-2.949219-7.671875-.027344-10.605469 37.765625-37.960938 37.765625-99.730469 0-137.695312-2.917969-2.933594-2.90625-7.683594.03125-10.605469 2.933594-2.921875 7.683594-2.90625 10.605469.027343 43.566406 43.800782 43.566406 115.0625 0 158.851563-1.46875 1.472656-3.394531 2.210937-5.316406 2.210937zm0 0" fill="#c5ccd3"/><path d="m380.511719 383.324219c-1.914063 0-3.824219-.726563-5.289063-2.183594-2.9375-2.921875-2.949218-7.667969-.027344-10.605469 24.429688-24.558594 24.433594-64.519531.003907-89.082031-2.921875-2.933594-2.910157-7.683594.027343-10.605469 2.9375-2.917968 7.683594-2.90625 10.605469.03125 30.230469 30.394532 30.230469 79.84375-.003906 110.234375-1.464844 1.472657-3.390625 2.210938-5.316406 2.210938zm0 0" fill="#b3b3b3"/><path d="m37.972656 299.65625h-27.671875c-5.664062 0-10.300781 4.636719-10.300781 10.304688v32.070312c0 5.667969 4.636719 10.304688 10.300781 10.304688h27.671875zm0 0" fill="#9ea7af"/><path d="m141.511719 266.671875v118.644531l166.863281 91.085938v-300.8125zm0 0" fill="#fb8276"/><path d="m308.375 175.589844-37.230469 20.324218v260.164063l37.230469 20.324219zm0 0" fill="#ef5050"/><path d="m137.707031 248.035156-95.925781 37.054688c-2.644531 1.019531-4.808594 4.175781-4.808594 7.007812v67.792969c0 2.835937 2.164063 5.988281 4.808594 7.011719l67.804688 26.191406h15.660156c5.128906 0 9.300781 4.175781 9.300781 9.304688v.335937l3.160156 1.222656c2.644531 1.019531 4.804688-.464843 4.804688-3.296875v-149.332031c0-2.832031-2.164063-4.316406-4.804688-3.292969zm0 0" fill="#c0272d"/><g fill="#ef5050"><path d="m105.347656 308.300781h-24.996094c-4.140624 0-7.5-3.359375-7.5-7.5 0-4.144531 3.359376-7.5 7.5-7.5h24.996094c4.140625 0 7.5 3.355469 7.5 7.5 0 4.140625-3.359375 7.5-7.5 7.5zm0 0"/><path d="m105.347656 333.496094h-24.996094c-4.140624 0-7.5-3.359375-7.5-7.5s3.359376-7.5 7.5-7.5h24.996094c4.140625 0 7.5 3.359375 7.5 7.5s-3.359375 7.5-7.5 7.5zm0 0"/><path d="m105.347656 358.691406h-24.996094c-4.140624 0-7.5-3.355468-7.5-7.5 0-4.140625 3.359376-7.5 7.5-7.5h24.996094c4.140625 0 7.5 3.359375 7.5 7.5 0 4.144532-3.359375 7.5-7.5 7.5zm0 0"/></g><path d="m314.875 511.007812c-4.140625 0-7.5-3.359374-7.5-7.5v-355.023437c0-4.140625 3.359375-7.5 7.5-7.5 4.144531 0 7.5 3.359375 7.5 7.5v355.023437c0 4.140626-3.355469 7.5-7.5 7.5zm0 0" fill="#c0272d"/><path d="m512 70.40625c0-2.832031-2.316406-5.152344-5.152344-5.152344h-151.945312c-2.832032 0-5.148438 2.320313-5.148438 5.152344v115.140625c0 2.835937 2.316406 5.152344 5.148438 5.152344h20.457031c2.835937 0 5.152344 2.320312 5.152344 5.15625v26.59375c0 2.835937 1.644531 3.523437 3.65625 1.527343l29.886719-29.648437c2.011718-1.992187 5.976562-3.625 8.808593-3.625h83.984375c2.835938 0 5.152344-2.320313 5.152344-5.152344zm0 0" fill="#0291c9"/><path d="m474.992188 106.464844h-88.234376c-4.140624 0-7.5-3.355469-7.5-7.5 0-4.140625 3.359376-7.5 7.5-7.5h88.234376c4.144531 0 7.5 3.359375 7.5 7.5 0 4.144531-3.355469 7.5-7.5 7.5zm0 0" fill="#08375e"/><path d="m474.992188 135.476562h-88.234376c-4.140624 0-7.5-3.359374-7.5-7.5 0-4.140624 3.359376-7.5 7.5-7.5h88.234376c4.144531 0 7.5 3.359376 7.5 7.5 0 4.140626-3.355469 7.5-7.5 7.5zm0 0" fill="#08375e"/><path d="m426.183594 164.488281h-39.425782c-4.140624 0-7.5-3.359375-7.5-7.5s3.359376-7.5 7.5-7.5h39.425782c4.140625 0 7.5 3.359375 7.5 7.5s-3.359375 7.5-7.5 7.5zm0 0" fill="#08375e"/><path d="m124.984375 5.152344c0-2.832032 2.316406-5.152344 5.148437-5.152344h151.945313c2.835937 0 5.152344 2.320312 5.152344 5.152344v115.140625c0 2.835937-2.316407 5.152343-5.152344 5.152343h-20.457031c-2.832032 0-5.148438 2.320313-5.148438 5.15625v26.597657c0 2.832031-1.648437 3.519531-3.660156 1.523437l-29.882812-29.648437c-2.015626-1.992188-5.976563-3.625-8.8125-3.625h-83.984376c-2.832031 0-5.148437-2.320313-5.148437-5.152344zm0 0" fill="#ffc502"/><path d="m250.226562 41.210938h-88.238281c-4.140625 0-7.5-3.355469-7.5-7.5 0-4.140626 3.359375-7.5 7.5-7.5h88.238281c4.140626 0 7.5 3.359374 7.5 7.5 0 4.144531-3.359374 7.5-7.5 7.5zm0 0" fill="#775436"/><path d="m250.226562 70.222656h-88.238281c-4.140625 0-7.5-3.359375-7.5-7.5s3.359375-7.5 7.5-7.5h88.238281c4.140626 0 7.5 3.359375 7.5 7.5s-3.359374 7.5-7.5 7.5zm0 0" fill="#775436"/><path d="m201.414062 99.234375h-39.425781c-4.140625 0-7.5-3.355469-7.5-7.5 0-4.140625 3.359375-7.5 7.5-7.5h39.425781c4.144532 0 7.5 3.359375 7.5 7.5 0 4.144531-3.355468 7.5-7.5 7.5zm0 0" fill="#775436"/><path d="m37.683594 387.664062c-5.664063 0-10.300782 4.28125-10.300782 9.511719s-4.636718 9.507813-10.300781 9.507813h-4.109375c-5.667968 0-10.300781 4.640625-10.300781 10.308594v11.511718h32.15625c6.140625 0 11.464844-3.464844 14.148437-8.539062v12.222656c0 5.667969 4.636719 10.304688 10.300782 10.304688h9.59375c5.667968 0 10.304687-4.636719 10.304687-10.304688v-34.214844c0-5.667968-4.636719-10.308594-10.304687-10.308594zm0 0" fill="#ffc7a1"/><path d="m135.546875 412.230469v-9.832031c0-5.667969-4.636719-10.304688-10.300781-10.304688h-25.03125c-5.667969 0-10.304688 4.636719-10.304688 10.304688v9.832031c0 5.667969 4.636719 10.304687 10.304688 10.304687-5.667969 0-10.304688 4.640625-10.304688 10.308594v9.828125c0 5.667969 4.636719 10.304687 10.304688 10.304687-5.667969 0-10.304688 4.640626-10.304688 10.308594v9.828125c0 5.667969 4.636719 10.308594 10.304688 10.308594h25.03125c5.664062 0 10.300781-4.640625 10.300781-10.308594v-9.828125c0-5.667968-4.636719-10.308594-10.300781-10.308594 5.664062 0 10.300781-4.636718 10.300781-10.304687v-9.828125c0-5.671875-4.636719-10.308594-10.300781-10.308594 5.664062 0 10.300781-4.636718 10.300781-10.304687zm0 0" fill="#ffb98a"/><path d="m135.546875 442.671875c0 5.667969-4.636719 10.304687-10.300781 10.304687h-25.03125c-5.667969 0-10.304688-4.636718-10.304688-10.304687v-9.828125c0-5.671875 4.636719-10.308594 10.304688-10.308594h25.03125c5.664062 0 10.300781 4.640625 10.300781 10.308594zm0 0" fill="#ffc7a1"/></svg>